<svg xmlns="http://www.w3.org/2000/svg" xmlns:xlink="http://www.w3.org/1999/xlink" fill="none" version="1.1" width="91.7149658203125" height="81.29551696777344" viewBox="0 0 91.7149658203125 81.29551696777344"><defs><filter id="master_svg0_0_89" filterUnits="objectBoundingBox" color-interpolation-filters="sRGB" x="0" y="0" width="91.71497344970703" height="57.46001052856445"><feFlood flood-opacity="0" result="BackgroundImageFix"/><feBlend mode="normal" in="SourceGraphic" in2="BackgroundImageFix" result="shape"/><feGaussianBlur in="BackgroundImage" stdDeviation="5.525000095367432"/><feComposite in2="SourceAlpha" operator="in" result="effect1_foregroundBlur"/><feBlend mode="normal" in="SourceGraphic" in2="effect1_foregroundBlur" result="shape"/></filter><linearGradient x1="0.0662650614976883" y1="0.817307710647583" x2="1" y2="0.5" id="master_svg1__10"><stop offset="0%" stop-color="#FFFFFF" stop-opacity="1"/><stop offset="100%" stop-color="#C4C4C4" stop-opacity="0"/></linearGradient></defs><g><g><g><rect x="39.45500373840332" y="39.77999496459961" width="12.674999237060547" height="25.349998474121094" rx="2.5350003242492676" fill="#279201" fill-opacity="1"/></g><g transform="matrix(-1,0,0,-1,116.15200805664062,162.5910415649414)"><path d="M68.78530402832031,82.2686687824707C69.80020402832031,80.9711377824707,71.76380402832031,80.9711377824707,72.7787040283203,82.2686687824707C72.7787040283203,82.2686687824707,82.94500402832031,95.2654207824707,82.94500402832031,95.2654207824707C84.24670402832031,96.9295207824707,83.06100402832031,99.3623207824707,80.94830402832031,99.3623207824707C80.94830402832031,99.3623207824707,60.61571402832031,99.3623207824707,60.61571402832031,99.3623207824707C58.50297902832031,99.3623207824707,57.31730902832031,96.9295207824707,58.61900902832031,95.2654207824707C58.61900902832031,95.2654207824707,68.78530402832031,82.2686687824707,68.78530402832031,82.2686687824707C68.78530402832031,82.2686687824707,68.78530402832031,82.2686687824707,68.78530402832031,82.2686687824707Z" fill="#279201" fill-opacity="1"/></g></g><g transform="matrix(-1,0,0,1,183.42996215820312,0)" filter="url(#master_svg0_0_89)"><path d="M168.27698107910157,24.2897L168.27708107910155,26.7067Q168.64898107910156,26.7068,169.02058107910156,26.7253Q169.39208107910156,26.7438,169.76228107910157,26.7808Q170.13248107910158,26.8178,170.50038107910154,26.8732Q170.86838107910157,26.9286,171.23318107910154,27.0022Q171.59808107910158,27.0758,171.95888107910156,27.1676Q172.31968107910154,27.2593,172.67568107910157,27.3689Q173.03168107910156,27.4784,173.38188107910156,27.6056Q173.73218107910157,27.7328,174.07578107910155,27.8772Q174.41948107910156,28.0217,174.75568107910158,28.1831Q175.09198107910157,28.3445,175.42008107910158,28.5224Q175.74808107910155,28.7003,176.06718107910154,28.8944Q176.38628107910156,29.0885,176.69558107910154,29.2982Q177.00478107910158,29.5079,177.30358107910155,29.7327Q177.60238107910158,29.9576,177.88998107910157,30.1971Q178.17748107910157,30.4365,178.45308107910157,30.69Q178.72878107910157,30.9435,178.99178107910154,31.2105Q179.25478107910158,31.4774,179.50458107910157,31.7571Q179.75438107910156,32.0368,179.99038107910155,32.3285Q180.22638107910154,32.6203,180.44798107910157,32.9235Q180.66958107910156,33.2267,180.87618107910157,33.5406Q181.08288107910158,33.8544,181.27418107910157,34.1782Q181.46538107910158,34.502,181.64068107910157,34.8349Q181.81608107910156,35.1678,181.97508107910156,35.509Q182.13418107910155,35.8502,182.27648107910156,36.199Q182.41888107910157,36.5477,182.54418107910158,36.9031Q182.66948107910156,37.2585,182.77748107910156,37.6198Q182.88548107910157,37.981,182.97578107910158,38.3472Q183.06618107910157,38.7133,183.13878107910156,39.0835Q183.21138107910156,39.4538,183.26598107910155,39.8271Q183.32048107910157,40.2005,183.35698107910156,40.5762Q183.39348107910155,40.9518,183.41168107910158,41.3289Q183.42998107910157,41.7059,183.42998107910157,42.0834Q183.42998107910157,42.4608,183.41168107910158,42.8379Q183.39348107910155,43.2149,183.35698107910156,43.5905Q183.32048107910157,43.9662,183.26598107910155,44.3396Q183.21138107910156,44.713,183.13878107910156,45.0832Q183.06618107910157,45.4534,182.97588107910155,45.8196Q182.88548107910157,46.1857,182.77748107910156,46.547Q182.66948107910156,46.9082,182.54418107910158,47.2636Q182.41888107910157,47.619,182.27648107910156,47.9677Q182.13418107910155,48.3165,181.97508107910156,48.6577Q181.81608107910156,48.9989,181.64068107910157,49.3318Q181.46538107910158,49.6648,181.27408107910156,49.9885Q181.08288107910158,50.3123,180.87618107910157,50.6262Q180.66958107910156,50.94,180.44798107910157,51.2432Q180.22638107910154,51.5464,179.99038107910155,51.8382Q179.75438107910156,52.13,179.50458107910157,52.4097Q179.25478107910158,52.6894,178.99178107910154,52.9563Q178.72868107910156,53.2232,178.45308107910157,53.4767Q178.17748107910157,53.7302,177.88988107910154,53.9697Q177.60238107910158,54.2091,177.30358107910155,54.434Q177.00478107910158,54.6588,176.69548107910157,54.8686Q176.38628107910156,55.0783,176.06718107910154,55.2723Q175.74808107910155,55.4664,175.42008107910158,55.6443Q175.09198107910157,55.8223,174.75568107910158,55.9837Q174.41948107910156,56.1451,174.07578107910155,56.2895Q173.73208107910156,56.434,173.38188107910156,56.5611Q173.03168107910156,56.6883,172.67568107910157,56.7979Q172.31968107910154,56.9075,171.95888107910156,56.9992Q171.59808107910158,57.0909,171.23318107910154,57.1645Q170.86838107910157,57.2382,170.50038107910154,57.2936Q170.13248107910158,57.349,169.76228107910157,57.386Q169.39208107910156,57.423,169.02058107910156,57.4415Q168.64898107910156,57.46,168.27698107910157,57.46L109.26038107910156,57.46L109.26038107910156,57.3565Q108.81428107910156,57.3101,108.37078107910156,57.2429Q107.92728107910156,57.1758,107.48728107910156,57.088Q107.04718107910156,57.0003,106.61158107910157,56.8922Q106.17608107910156,56.7841,105.74578107910156,56.6558Q105.31558107910156,56.5275,104.89158107910157,56.3793Q104.46758107910156,56.2311,104.05068107910157,56.0634Q103.63388107910157,55.8956,103.22498107910157,55.7086Q102.81618107910157,55.5216,102.41628107910157,55.3158Q102.01628107910156,55.1099,101.62611107910156,54.8857Q101.23589107910156,54.6615,100.85622107910156,54.4193Q100.47656107910156,54.1771,100.10824107910156,53.9175Q99.73992107910156,53.658,99.38373107910157,53.3815Q99.02753107910156,53.105,98.68421107910156,52.8123Q98.34089107910157,52.5196,98.01117107910156,52.2111Q97.68144107910156,51.9027,97.36601107910157,51.5793Q97.05057107910156,51.2558,96.75009107910157,50.918Q96.44962107910156,50.5802,96.16472107910157,50.2288Q95.87983107910156,49.8774,95.61113107910157,49.5131Q95.34243107910156,49.1487,95.09048107910156,48.7723Q94.83853107910156,48.3958,94.60386107910156,48.0081Q94.36919107910157,47.6203,94.15231107910157,47.222Q93.93542107910156,46.8237,93.73677107910156,46.4157Q93.53811107910157,46.0078,93.35812107910156,45.591Q93.17812107910156,45.1742,93.01715107910157,44.7495Q92.85618107910156,44.3247,92.71458807910156,43.8929Q92.57299207910157,43.4612,92.45106607910157,43.0233Q92.32914007910156,42.5853,92.22714007910156,42.1422Q92.12514007910156,41.6991,92.04328107910156,41.2517Q91.96142307910156,40.8043,91.89987707910156,40.3535Q91.83833207910156,39.9028,91.79722927910156,39.4496Q91.75612687910156,38.9965,91.73555397910157,38.5419Q91.71498107910156,38.0873,91.71498107910156,37.6323Q91.71498107910156,37.1455,91.73851697910156,36.6594Q91.76205287910156,36.1732,91.80906807910156,35.6888Q91.85608307910157,35.2044,91.92646407910156,34.7229Q91.99684507910156,34.2415,92.09042307910157,33.7641Q92.18400007910157,33.2867,92.30054907910156,32.8145Q92.41709707910157,32.3424,92.55633607910156,31.8766Q92.69557407910156,31.4108,92.85717107910156,30.9525Q93.01876107910157,30.4942,93.20232107910157,30.0445Q93.38588107910157,29.5948,93.59096107910156,29.1548Q93.79604107910156,28.7148,94.02215107910156,28.2855Q94.24826107910157,27.8563,94.49486107910157,27.4388Q94.74146107910157,27.0213,95.00794107910156,26.6166Q95.27443107910156,26.2118,95.56016107910156,25.8209Q95.84590107910157,25.4299,96.15019107910156,25.0537Q96.45449107910156,24.6774,96.77661107910156,24.3168Q97.09873107910157,23.9561,97.43790107910156,23.6119Q97.77708107910156,23.2677,98.13248107910157,22.9409Q98.48789107910156,22.614,98.85867107910157,22.3052Q99.22946107910157,21.9964,99.61472107910156,21.7065Q99.99999107910156,21.4165,100.39882107910157,21.1461Q100.79764107910157,20.8757,101.20906107910156,20.6254Q101.62048107910157,20.3752,102.04348107910157,20.1458Q102.46658107910156,19.9163,102.90018107910156,19.7082Q103.33378107910156,19.5001,103.77688107910156,19.3138Q104.22008107910156,19.1275,104.67168107910156,18.9636Q105.12328107910156,18.7996,105.58228107910156,18.6583Q106.04128107910157,18.517,106.50658107910157,18.3987Q106.97188107910156,18.2805,107.44238107910157,18.1855Q107.91278107910156,18.0905,108.38728107910157,18.0191Q108.86168107910156,17.9477,109.33908107910156,17.9Q109.81638107910156,17.8523,110.29548107910156,17.8284Q110.77458107910157,17.8045,111.25428107910156,17.8045Q113.62798107910156,17.8045,115.93268107910157,18.3813Q115.64058107910157,16.8936,115.64058107910157,15.3766Q115.64058107910157,14.9991,115.65888107910156,14.6221Q115.67708107910155,14.2451,115.71358107910156,13.8694Q115.75008107910156,13.4938,115.80458107910157,13.1204Q115.85918107910156,12.747,115.93178107910157,12.3768Q116.00438107910156,12.0066,116.09468107910156,11.6404Q116.18508107910156,11.2742,116.29308107910157,10.913Q116.40108107910156,10.5518,116.52638107910155,10.1964Q116.65168107910156,9.84098,116.79408107910156,9.49224Q116.93638107910157,9.1435,117.09548107910156,8.80227Q117.25448107910157,8.46103,117.42988107910156,8.12813Q117.60518107910156,7.79523,117.79648107910157,7.47146Q117.98768107910156,7.14769,118.19438107910156,6.83383Q118.40098107910157,6.51997,118.62258107910156,6.21678Q118.84418107910156,5.91359,119.08018107910156,5.6218Q119.31618107910157,5.33,119.56598107910156,5.05031Q119.81578107910155,4.77062,120.07878107910156,4.50371Q120.34178107910157,4.23679,120.61748107910157,3.9833Q120.89308107910156,3.7298,121.18058107910156,3.49033Q121.46818107910156,3.25086,121.76698107910155,3.026Q122.06568107910157,2.80114,122.37498107910156,2.59143Q122.68428107910157,2.38171,123.00338107910156,2.18765Q123.32238107910156,1.99359,123.65048107910157,1.81565Q123.97858107910156,1.63771,124.31478107910156,1.47632Q124.65108107910157,1.31493,124.99478107910156,1.17048Q125.33838107910157,1.02602,125.68868107910157,0.898855Q126.03888107910157,0.771687,126.39488107910157,0.662112Q126.75078107910156,0.552537,127.11168107910157,0.460818Q127.47248107910156,0.369099,127.83728107910156,0.295457Q128.20218107910156,0.221816,128.57008107910156,0.166429Q128.93808107910155,0.111042,129.30828107910156,0.0740426Q129.67848107910157,0.0370436,130.04998107910157,0.0185218Q130.42158107910157,0,130.79348107910155,0Q131.09848107910156,0,131.40318107910156,0.0124512Q131.70788107910155,0.0249023,132.01188107910156,0.0497845Q132.31588107910156,0.0746666,132.61858107910155,0.111939Q132.92138107910156,0.149212,133.22238107910155,0.198815Q133.52338107910157,0.248419,133.82218107910157,0.310272Q134.12098107910157,0.372125,134.41708107910156,0.446128Q134.71318107910156,0.520131,135.00618107910157,0.606164Q135.29908107910157,0.692197,135.58838107910157,0.790121Q135.87768107910156,0.888044,136.16288107910157,0.9977Q136.44798107910157,1.10736,136.72858107910156,1.22857Q137.00918107910155,1.34978,137.28478107910155,1.48234Q137.56028107910157,1.61491,137.83038107910156,1.75862Q138.10048107910157,1.90234,138.36468107910156,2.05696Q138.62878107910157,2.21158,138.88668107910155,2.37686Q139.14448107910155,2.54215,139.39548107910156,2.71782Q139.64658107910157,2.8935,139.89048107910156,3.07928Q140.13438107910156,3.26507,140.37068107910156,3.46066Q140.60698107910156,3.65625,140.83538107910155,3.86133Q141.06378107910155,4.06641,141.28388107910155,4.28065Q141.50388107910157,4.49489,141.71528107910157,4.71794Q141.92668107910157,4.94099,142.12908107910155,5.1725Q142.33138107910156,5.404,142.52448107910158,5.64357Q142.71748107910156,5.88315,142.90088107910157,6.13041Q143.08428107910157,6.37768,143.25768107910156,6.63223Q143.43108107910155,6.88678,143.59428107910156,7.14821Q143.75748107910155,7.40963,143.91018107910156,7.67751Q144.06288107910157,7.94538,144.20478107910156,8.21928Q144.34678107910156,8.49317,144.47778107910156,8.77264Q144.60868107910156,9.05211,144.72848107910156,9.3367Q144.84828107910155,9.62129,144.95668107910157,9.91054Q145.06508107910156,10.1998,145.16198107910157,10.4932Q145.25878107910157,10.7867,145.34398107910155,11.0838Q146.22168107910156,10.5509,147.16198107910157,10.1425Q148.10238107910158,9.73412,149.08828107910156,9.45767Q150.07418107910155,9.18122,151.08768107910157,9.04173Q152.10128107910157,8.90224,153.12408107910156,8.90224Q153.48368107910156,8.90224,153.84278107910157,8.91955Q154.20188107910155,8.93685,154.55968107910155,8.97141Q154.91758107910155,9.00597,155.27348107910157,9.05772Q155.62938107910156,9.10947,155.98238107910157,9.17829Q156.33548107910156,9.2471,156.68488107910156,9.33283Q157.03438107910156,9.41856,157.37938107910156,9.52101Q157.72448107910157,9.62346,158.06428107910156,9.74239Q158.40418107910156,9.86133,158.73808107910156,9.99649Q159.07198107910156,10.1317,159.39928107910157,10.2827Q159.72648107910157,10.4338,160.04628107910156,10.6005Q160.36608107910155,10.7671,160.67778107910158,10.949Q160.98938107910158,11.1308,161.29218107910157,11.3275Q161.59508107910156,11.5241,161.88828107910155,11.7352Q162.18158107910156,11.9462,162.46468107910158,12.171Q162.74778107910157,12.3959,163.01998107910157,12.6342Q163.29228107910154,12.8724,163.55308107910156,13.1235Q163.81388107910158,13.3746,164.06268107910157,13.6379Q164.31148107910155,13.9013,164.54768107910155,14.1763Q164.78388107910155,14.4513,165.00698107910156,14.7374Q165.22998107910155,15.0235,165.43948107910157,15.32Q165.64898107910156,15.6165,165.84428107910156,15.9228Q166.03968107910157,16.229,166.22048107910155,16.5443Q166.40138107910155,16.8596,166.56728107910158,17.1833Q166.73318107910154,17.5069,166.88368107910156,17.8382Q167.03428107910156,18.1695,167.16928107910155,18.5076Q167.30418107910157,18.8458,167.42318107910157,19.19Q167.54218107910157,19.5343,167.64488107910157,19.8839Q167.74768107910157,20.2335,167.83398107910156,20.5876Q167.92028107910156,20.9418,167.98988107910156,21.2997Q168.05958107910158,21.6576,168.11238107910157,22.0184Q168.16528107910156,22.3793,168.20118107910156,22.7423Q168.23708107910156,23.1053,168.25598107910156,23.4696L168.27698107910157,23.4696L168.27698107910157,24.2789L168.27698107910157,24.2897Z" fill-rule="evenodd" fill="url(#master_svg1__10)" fill-opacity="1"/><path d="M168.27708107910155,26.3752L168.27698107910157,24.2897L168.27698107910157,24.2789L168.27698107910157,23.4696L168.25598107910156,23.4696Q168.23708107910156,23.1053,168.20118107910156,22.7423Q168.16528107910156,22.3793,168.11238107910157,22.0184Q168.05958107910158,21.6576,167.98988107910156,21.2997Q167.92028107910156,20.9418,167.83398107910156,20.5876Q167.74768107910157,20.2335,167.64488107910157,19.8839Q167.54218107910157,19.5343,167.42318107910157,19.19Q167.30418107910157,18.8458,167.16928107910155,18.5076Q167.03428107910156,18.1695,166.88368107910156,17.8382Q166.73318107910154,17.5069,166.56728107910158,17.1833Q166.40138107910155,16.8596,166.22048107910155,16.5443Q166.03968107910157,16.229,165.84428107910156,15.9228Q165.64898107910156,15.6165,165.43948107910157,15.32Q165.22998107910155,15.0235,165.00698107910156,14.7374Q164.78388107910155,14.4513,164.54768107910155,14.1763Q164.31148107910155,13.9013,164.06268107910157,13.6379Q163.81388107910158,13.3746,163.55308107910156,13.1235Q163.29228107910154,12.8724,163.01998107910157,12.6342Q162.74778107910157,12.3959,162.46468107910158,12.171Q162.18158107910156,11.9462,161.88828107910155,11.7352Q161.59508107910156,11.5241,161.29218107910157,11.3275Q160.98938107910158,11.1308,160.67778107910158,10.949Q160.36608107910155,10.7671,160.04628107910156,10.6005Q159.72648107910157,10.4338,159.39928107910157,10.2827Q159.07198107910156,10.1317,158.73808107910156,9.99649Q158.40418107910156,9.86133,158.06428107910156,9.74239Q157.72448107910157,9.62346,157.37938107910156,9.52101Q157.03438107910156,9.41856,156.68488107910156,9.33283Q156.33548107910156,9.2471,155.98238107910157,9.17829Q155.62938107910156,9.10947,155.27348107910157,9.05772Q154.91758107910155,9.00597,154.55978107910155,8.97141Q154.20188107910155,8.93685,153.84278107910157,8.91955Q153.48368107910156,8.90224,153.12408107910156,8.90224Q152.14408107910157,8.90224,151.17228107910157,9.03034Q150.20038107910156,9.15845,149.25288107910157,9.41251Q148.30538107910155,9.66658,147.39808107910156,10.0424Q146.49068107910156,10.4182,145.63858107910156,10.9095Q145.49028107910158,10.995,145.34398107910155,11.0838Q145.29678107910155,10.9192,145.24598107910157,10.7557Q145.15598107910157,10.4657,145.05468107910156,10.1795Q144.95338107910158,9.89328,144.84108107910157,9.61136Q144.72868107910156,9.32944,144.60538107910156,9.05225Q144.48218107910157,8.77505,144.34818107910155,8.50303Q144.21428107910157,8.231,144.06978107910157,7.96455Q143.92528107910155,7.69811,143.77058107910156,7.43768Q143.61588107910157,7.17724,143.45108107910156,6.92321Q143.28638107910155,6.66919,143.11188107910158,6.42197Q142.93738107910156,6.17476,142.75328107910155,5.93473Q142.56928107910156,5.69471,142.37608107910157,5.46226Q142.18288107910155,5.22981,141.98068107910157,5.0053Q141.77858107910157,4.78078,141.56788107910157,4.56455Q141.35718107910157,4.34832,141.13818107910157,4.14071Q140.91918107910158,3.93311,140.69228107910158,3.73445Q140.46538107910158,3.53579,140.23088107910155,3.34639Q139.99648107910156,3.15699,139.75478107910158,2.97714Q139.51318107910157,2.7973,139.26468107910156,2.62729Q139.01618107910156,2.45728,138.76128107910156,2.29738Q138.50638107910157,2.13747,138.24548107910158,1.98792Q137.98448107910156,1.83837,137.71798107910155,1.6994Q137.45138107910157,1.56043,137.17968107910156,1.43227Q136.90788107910157,1.30411,136.63128107910157,1.18695Q136.35478107910157,1.06979,136.07388107910157,0.963818Q135.79298107910157,0.857846,135.50818107910158,0.763228Q135.22338107910156,0.668609,134.93508107910156,0.585492Q134.64688107910155,0.502374,134.35558107910157,0.430887Q134.06428107910156,0.359401,133.77048107910156,0.299657Q133.47658107910155,0.239913,133.18068107910156,0.192006Q132.88468107910157,0.144098,132.58718107910155,0.108102Q132.28958107910157,0.0721055,131.99088107910157,0.0480766Q131.69208107910157,0.0240477,131.39268107910158,0.0120238Q131.09318107910156,0,130.79348107910155,0Q130.42158107910157,0,130.04998107910157,0.0185218Q129.67848107910157,0.0370436,129.30828107910156,0.0740426Q128.93808107910155,0.111042,128.57008107910156,0.166429Q128.20218107910156,0.221816,127.83738107910156,0.295457Q127.47248107910156,0.369099,127.11168107910157,0.460818Q126.75078107910156,0.552537,126.39488107910157,0.662112Q126.03888107910157,0.771687,125.68868107910157,0.898855Q125.33838107910157,1.02602,124.99478107910156,1.17048Q124.65108107910157,1.31493,124.31478107910156,1.47632Q123.97858107910156,1.63771,123.65048107910157,1.81565Q123.32238107910156,1.99359,123.00338107910156,2.18765Q122.68428107910157,2.38171,122.37498107910156,2.59143Q122.06568107910157,2.80114,121.76698107910155,3.026Q121.46818107910156,3.25086,121.18058107910156,3.49033Q120.89308107910156,3.7298,120.61748107910157,3.9833Q120.34178107910157,4.23679,120.07878107910156,4.50371Q119.81578107910155,4.77062,119.56598107910156,5.05031Q119.31618107910157,5.33,119.08018107910156,5.62179Q118.84418107910156,5.91359,118.62258107910156,6.21678Q118.40098107910157,6.51997,118.19438107910156,6.83383Q117.98768107910156,7.14769,117.79648107910157,7.47146Q117.60518107910156,7.79523,117.42988107910156,8.12813Q117.25448107910157,8.46103,117.09548107910156,8.80227Q116.93638107910157,9.1435,116.79408107910156,9.49224Q116.65168107910156,9.84098,116.52638107910155,10.1964Q116.40108107910156,10.5518,116.29308107910157,10.913Q116.18508107910156,11.2742,116.09468107910156,11.6404Q116.00438107910156,12.0066,115.93178107910157,12.3768Q115.85918107910156,12.747,115.80458107910157,13.1204Q115.75008107910156,13.4938,115.71358107910156,13.8694Q115.67708107910155,14.2451,115.65888107910156,14.6221Q115.64058107910157,14.9991,115.64058107910157,15.3766Q115.64058107910157,16.7101,115.86678107910157,18.0237Q115.89768107910156,18.2029,115.93268107910157,18.3813Q115.75618107910157,18.3371,115.57888107910156,18.2963Q113.44378107910157,17.8045,111.25428107910156,17.8045Q110.77458107910157,17.8045,110.29548107910156,17.8284Q109.81638107910156,17.8523,109.33908107910156,17.9Q108.86168107910156,17.9477,108.38728107910157,18.0191Q107.91278107910156,18.0905,107.44238107910157,18.1855Q106.97188107910156,18.2805,106.50658107910157,18.3987Q106.04128107910157,18.517,105.58228107910156,18.6583Q105.12328107910156,18.7996,104.67168107910156,18.9636Q104.22008107910156,19.1275,103.77688107910156,19.3138Q103.33378107910156,19.5001,102.90018107910156,19.7082Q102.46658107910156,19.9163,102.04348107910157,20.1458Q101.62048107910157,20.3752,101.20906107910156,20.6254Q100.79764107910157,20.8757,100.39882107910157,21.1461Q99.99999107910156,21.4165,99.61472107910156,21.7065Q99.22946107910157,21.9964,98.85867107910157,22.3052Q98.48789107910156,22.614,98.13248107910157,22.9409Q97.77708107910156,23.2677,97.43790107910156,23.6119Q97.09873107910157,23.9561,96.77661107910156,24.3168Q96.45449107910156,24.6774,96.15019107910156,25.0537Q95.84590107910157,25.4299,95.56016107910156,25.8209Q95.27443107910156,26.2118,95.00794107910156,26.6166Q94.74146107910157,27.0213,94.49486107910157,27.4388Q94.24826107910157,27.8563,94.02215107910156,28.2855Q93.79604107910156,28.7148,93.59096107910156,29.1548Q93.38588107910157,29.5948,93.20232107910157,30.0445Q93.01876107910157,30.4942,92.85717107910156,30.9525Q92.69557407910156,31.4108,92.55633607910156,31.8766Q92.41709707910157,32.3424,92.30054907910156,32.8145Q92.18400007910157,33.2867,92.09042307910157,33.7641Q91.99684507910156,34.2415,91.92646407910156,34.7229Q91.85608307910157,35.2044,91.80906807910156,35.6888Q91.76205287910156,36.1732,91.73851697910156,36.6594Q91.71498107910156,37.1455,91.71498107910156,37.6323Q91.71498107910156,38.0873,91.73555397910157,38.5419Q91.75612687910156,38.9965,91.79722927910156,39.4496Q91.83833207910156,39.9028,91.89987707910156,40.3535Q91.96142307910156,40.8043,92.04328107910156,41.2517Q92.12514007910156,41.6991,92.22714007910156,42.1422Q92.32914007910156,42.5853,92.45106607910157,43.0233Q92.57299207910157,43.4612,92.71458807910156,43.8929Q92.85618107910156,44.3247,93.01715107910157,44.7495Q93.17812107910156,45.1742,93.35812107910156,45.591Q93.53811107910157,46.0078,93.73677107910156,46.4157Q93.93542107910156,46.8237,94.15231107910157,47.222Q94.36919107910157,47.6203,94.60386107910156,48.0081Q94.83853107910156,48.3958,95.09048107910156,48.7723Q95.34243107910156,49.1487,95.61113107910157,49.5131Q95.87983107910156,49.8774,96.16472107910157,50.2288Q96.44962107910156,50.5802,96.75009107910157,50.918Q97.05057107910156,51.2558,97.36601107910157,51.5793Q97.68144107910156,51.9027,98.01117107910156,52.2111Q98.34089107910157,52.5196,98.68421107910156,52.8123Q99.02753107910156,53.105,99.38373107910157,53.3815Q99.73992107910156,53.658,100.10824107910156,53.9175Q100.47656107910156,54.1771,100.85622107910156,54.4193Q101.23589107910156,54.6615,101.62611107910156,54.8857Q102.01628107910156,55.1099,102.41628107910157,55.3158Q102.81618107910157,55.5216,103.22498107910157,55.7086Q103.63388107910157,55.8956,104.05068107910157,56.0633Q104.46758107910156,56.2311,104.89158107910157,56.3793Q105.31558107910156,56.5275,105.74578107910156,56.6558Q106.17608107910156,56.784,106.61158107910157,56.8922Q107.04718107910156,57.0003,107.48728107910156,57.088Q107.92728107910156,57.1758,108.37078107910156,57.2429Q108.81428107910156,57.3101,109.26038107910156,57.3565L109.26038107910156,57.46L168.27698107910157,57.46Q168.64898107910156,57.46,169.02058107910156,57.4415Q169.39208107910156,57.423,169.76228107910157,57.386Q170.13248107910158,57.349,170.50038107910154,57.2936Q170.86838107910157,57.2382,171.23318107910154,57.1645Q171.59808107910158,57.0909,171.95888107910156,56.9992Q172.31968107910154,56.9075,172.67568107910157,56.7979Q173.03168107910156,56.6883,173.38188107910156,56.5611Q173.73208107910156,56.434,174.07578107910155,56.2895Q174.41948107910156,56.1451,174.75568107910158,55.9837Q175.09198107910157,55.8223,175.42008107910158,55.6443Q175.74808107910155,55.4664,176.06718107910154,55.2723Q176.38628107910156,55.0783,176.69548107910157,54.8686Q177.00478107910158,54.6589,177.30358107910155,54.434Q177.60238107910158,54.2091,177.88988107910154,53.9697Q178.17748107910157,53.7302,178.45308107910157,53.4767Q178.72868107910156,53.2232,178.99178107910154,52.9563Q179.25478107910158,52.6894,179.50458107910157,52.4097Q179.75438107910156,52.13,179.99038107910155,51.8382Q180.22638107910154,51.5464,180.44798107910157,51.2432Q180.66958107910156,50.94,180.87618107910157,50.6262Q181.08288107910158,50.3123,181.27408107910156,49.9885Q181.46538107910158,49.6648,181.64068107910157,49.3319Q181.81608107910156,48.999,181.97508107910156,48.6577Q182.13418107910155,48.3165,182.27648107910156,47.9677Q182.41888107910157,47.619,182.54418107910158,47.2636Q182.66948107910156,46.9082,182.77748107910156,46.547Q182.88548107910157,46.1857,182.97578107910158,45.8196Q183.06618107910157,45.4534,183.13878107910156,45.0832Q183.21138107910156,44.713,183.26598107910155,44.3396Q183.32048107910157,43.9662,183.35698107910156,43.5905Q183.39348107910155,43.2149,183.41168107910158,42.8379Q183.42998107910157,42.4608,183.42998107910157,42.0834Q183.42998107910157,41.7059,183.41168107910158,41.3289Q183.39348107910155,40.9518,183.35698107910156,40.5762Q183.32048107910157,40.2005,183.26598107910155,39.8271Q183.21138107910156,39.4538,183.13878107910156,39.0835Q183.06618107910157,38.7133,182.97588107910155,38.3472Q182.88548107910157,37.981,182.77748107910156,37.6198Q182.66948107910156,37.2585,182.54418107910158,36.9031Q182.41888107910157,36.5477,182.27648107910156,36.199Q182.13418107910155,35.8502,181.97508107910156,35.509Q181.81608107910156,35.1678,181.64068107910157,34.8349Q181.46538107910158,34.502,181.27408107910156,34.1782Q181.08288107910158,33.8544,180.87618107910157,33.5406Q180.66958107910156,33.2267,180.44798107910157,32.9235Q180.22638107910154,32.6203,179.99038107910155,32.3285Q179.75438107910156,32.0368,179.50458107910157,31.7571Q179.25478107910158,31.4774,178.99178107910154,31.2105Q178.72868107910156,30.9435,178.45308107910157,30.69Q178.17748107910157,30.4365,177.88988107910154,30.1971Q177.60238107910158,29.9576,177.30358107910155,29.7327Q177.00478107910158,29.5079,176.69548107910157,29.2982Q176.38628107910156,29.0885,176.06718107910154,28.8944Q175.74808107910155,28.7003,175.42008107910158,28.5224Q175.09198107910157,28.3445,174.75568107910158,28.1831Q174.41948107910156,28.0217,174.07578107910155,27.8772Q173.73218107910157,27.7328,173.38188107910156,27.6056Q173.03168107910156,27.4784,172.67568107910157,27.3689Q172.31968107910154,27.2593,171.95888107910156,27.1676Q171.59808107910158,27.0758,171.23318107910154,27.0022Q170.86838107910157,26.9286,170.50038107910154,26.8732Q170.13248107910158,26.8178,169.76228107910157,26.7808Q169.39208107910156,26.7438,169.02058107910156,26.7253Q168.64898107910156,26.7068,168.27708107910155,26.7067L168.27708107910155,26.3752ZM109.59188107910157,57.1285L168.27698107910157,57.1285Q171.10328107910158,57.1285,173.73118107910156,56.0728Q176.58508107910154,54.9262,178.75568107910158,52.7236Q180.92688107910158,50.5203,182.05718107910155,47.6229Q183.09848107910156,44.9539,183.09848107910156,42.0834Q183.09848107910156,39.2128,182.05718107910155,36.5438Q180.92688107910158,33.6464,178.75568107910158,31.4431Q176.58508107910154,29.2405,173.73118107910156,28.094Q171.10328107910158,27.0382,168.27708107910155,27.0382L167.94558107910154,27.0382L167.94558107910154,24.2899L167.94558107910154,24.2897L167.94548107910157,24.2789L167.94548107910157,23.8011L167.94128107910154,23.8011L167.92498107910154,23.4868Q167.78068107910156,20.7103,166.66858107910156,18.1697Q165.46818107910156,15.4273,163.32318107910157,13.3623Q161.17868107910158,11.2978,158.41808107910157,10.2262Q155.86138107910156,9.23374,153.12408107910156,9.23374Q149.02978107910155,9.23375,145.51598107910155,11.3672L145.14488107910157,11.5925L145.02528107910155,11.1751Q143.64438107910155,6.35557,139.68958107910157,3.34299Q135.73618107910156,0.3315,130.79348107910155,0.3315Q127.96728107910155,0.3315,125.33938107910157,1.38722Q122.48548107910156,2.53373,120.31488107910157,4.73639Q118.14368107910155,6.93965,117.01338107910156,9.83705Q115.97208107910157,12.506,115.97208107910157,15.3766Q115.97208107910157,16.8613,116.25798107910157,18.3174L116.35858107910155,18.8296L115.85228107910156,18.7029Q113.58718107910155,18.136,111.25428107910156,18.136Q107.59138107910157,18.136,104.18558107910157,19.5043Q100.48705107910156,20.9901,97.67402107910156,23.8446Q94.86047107910156,26.6997,93.39570107910156,30.4543Q92.04648107910157,33.9126,92.04648107910157,37.6323Q92.04648107910157,41.1238,93.24032107910156,44.3985Q94.52229107910156,47.9147,96.99778107910156,50.6977Q99.47282107910156,53.4801,102.78788107910157,55.1324Q105.87428107910156,56.6708,109.29478107910157,57.0268L109.59188107910157,57.0577L109.59188107910157,57.1285Z" fill-rule="evenodd" fill="#2DAD01" fill-opacity="1"/></g></g></svg>